<svg width="283" height="143" viewBox="0 0 283 143" fill="none" xmlns="http://www.w3.org/2000/svg">
<g opacity="0.43">
<g opacity="0.85">
<g opacity="0.85">
<path opacity="0.85" d="M202.531 72.177L206.909 61.9812C206.984 61.8093 207.2 61.7317 207.369 61.8204L208.902 62.5855C209.077 62.6742 209.135 62.8849 209.025 63.0401L202.659 72.238C202.613 72.31 202.496 72.2546 202.531 72.177Z" fill="#FFF2DC"/>
<path opacity="0.85" d="M199.25 72.8479L191.363 64.7867C191.229 64.6481 191.246 64.4319 191.404 64.321L192.779 63.323C192.937 63.2121 193.158 63.251 193.263 63.4062L199.366 72.7647C199.407 72.8368 199.308 72.9089 199.25 72.8479Z" fill="#FFF2DC"/>
<path opacity="0.85" d="M201.22 71.5837L199.232 67.1927C199.197 67.1206 199.337 67.0263 199.53 66.9931L201.232 66.6992C201.424 66.666 201.587 66.7048 201.587 66.7879L201.36 71.5671C201.36 71.5948 201.232 71.617 201.22 71.5837Z" fill="#FFD283"/>
<path opacity="0.85" d="M203.936 75.1986L215.385 76.834C215.577 76.8618 215.758 76.7232 215.764 76.5347L215.851 74.8936C215.863 74.7051 215.7 74.5499 215.502 74.561L203.936 75.06C203.855 75.0655 203.849 75.1875 203.936 75.1986Z" fill="#FFF2DC"/>
<path opacity="0.85" d="M203.919 72.9365L208.851 72.0106C208.932 71.994 208.938 71.8332 208.857 71.6614L208.151 70.1589C208.07 69.987 207.941 69.8817 207.877 69.9316L203.861 72.809C203.832 72.8367 203.878 72.9476 203.919 72.9365Z" fill="#FFD283"/>
</g>
<g opacity="0.85">
<path opacity="0.85" d="M199.653 77.7988L195.275 87.9946C195.199 88.1665 194.983 88.2441 194.814 88.1554L193.281 87.3903C193.106 87.3016 193.048 87.0909 193.159 86.9357L199.524 77.7378C199.577 77.6657 199.688 77.7212 199.653 77.7988Z" fill="#FFF2DC"/>
<path opacity="0.85" d="M202.941 77.128L210.828 85.1893C210.962 85.3279 210.944 85.5441 210.787 85.655L209.411 86.653C209.254 86.7639 209.032 86.7251 208.927 86.5698L202.824 77.2112C202.777 77.1391 202.882 77.067 202.941 77.128Z" fill="#FFF2DC"/>
<path opacity="0.85" d="M200.971 78.3919L202.959 82.7828C202.994 82.8549 202.854 82.9491 202.661 82.9824L200.959 83.2762C200.767 83.3095 200.604 83.2707 200.604 83.1875L200.831 78.4085C200.831 78.3808 200.953 78.3586 200.971 78.3919Z" fill="#FFD283"/>
<path opacity="0.85" d="M198.254 74.7772L186.805 73.1416C186.613 73.1139 186.432 73.2525 186.426 73.441L186.339 75.0821C186.327 75.2706 186.49 75.4259 186.689 75.4148L198.254 74.9158C198.329 74.9102 198.341 74.7883 198.254 74.7772Z" fill="#FFF2DC"/>
<path opacity="0.85" d="M198.272 77.0391L193.34 77.965C193.259 77.9816 193.253 78.1424 193.334 78.3143L194.04 79.8168C194.121 79.9886 194.25 80.094 194.314 80.0441L198.33 77.1667C198.359 77.1445 198.307 77.0336 198.272 77.0391Z" fill="#FFD283"/>
</g>
<path opacity="0.85" d="M198.481 73.6794L194.651 70.5802C194.587 70.5303 194.453 70.6246 194.36 70.7909L193.561 72.249C193.468 72.4153 193.462 72.5761 193.544 72.5983L198.411 73.7958C198.446 73.8124 198.51 73.7071 198.481 73.6794Z" fill="#FFD283"/>
<path opacity="0.85" d="M203.657 76.3907L207.487 79.4899C207.551 79.5398 207.685 79.4456 207.779 79.2793L208.577 77.8211C208.67 77.6548 208.676 77.494 208.595 77.4718L203.727 76.2743C203.686 76.2632 203.628 76.3685 203.657 76.3907Z" fill="#FFD283"/>
</g>
<path d="M202.48 75.1764C202.258 75.875 201.483 76.2686 200.754 76.0524C200.02 75.8417 199.606 75.1043 199.833 74.4113C200.055 73.7127 200.83 73.3191 201.559 73.5353C202.287 73.746 202.701 74.4834 202.48 75.1764Z" fill="#FFF2DC"/>
<g opacity="0.85">
<g opacity="0.85">
<path opacity="0.85" d="M140.767 14.3796L145.145 4.18376C145.22 4.01189 145.436 3.93428 145.605 4.02298L147.138 4.78808C147.313 4.87679 147.371 5.08747 147.261 5.24271L140.895 14.4406C140.848 14.5127 140.732 14.4572 140.767 14.3796Z" fill="#FFF2DC"/>
<path opacity="0.85" d="M137.486 15.0505L129.599 6.98923C129.465 6.85063 129.482 6.63441 129.64 6.52352L131.015 5.52557C131.173 5.41468 131.394 5.4535 131.499 5.60874L137.602 14.9673C137.643 15.0394 137.544 15.1115 137.486 15.0505Z" fill="#FFF2DC"/>
<path opacity="0.85" d="M139.456 13.7864L137.468 9.39534C137.433 9.32326 137.573 9.22901 137.765 9.19575L139.468 8.9019C139.66 8.86864 139.823 8.90745 139.823 8.99061L139.596 13.7697C139.596 13.7975 139.468 13.8197 139.456 13.7864Z" fill="#FFD283"/>
<path opacity="0.85" d="M142.172 17.4012L153.621 19.0367C153.813 19.0644 153.994 18.9258 154 18.7373L154.087 17.0962C154.099 16.9077 153.936 16.7525 153.737 16.7636L142.172 17.2626C142.091 17.2681 142.085 17.3901 142.172 17.4012Z" fill="#FFF2DC"/>
<path opacity="0.85" d="M142.155 15.1392L147.086 14.2133C147.168 14.1967 147.174 14.0359 147.092 13.864L146.387 12.3615C146.305 12.1896 146.177 12.0843 146.113 12.1342L142.097 15.0117C142.067 15.0394 142.114 15.1503 142.155 15.1392Z" fill="#FFD283"/>
</g>
<g opacity="0.85">
<path opacity="0.85" d="M137.889 20.0014L133.511 30.1971C133.435 30.369 133.219 30.4466 133.05 30.3579L131.517 29.5928C131.342 29.5041 131.284 29.2934 131.395 29.1382L137.76 19.9405C137.813 19.8684 137.924 19.9238 137.889 20.0014Z" fill="#FFF2DC"/>
<path opacity="0.85" d="M141.176 19.3304L149.063 27.3916C149.197 27.5302 149.18 27.7465 149.023 27.8573L147.647 28.8553C147.489 28.9662 147.268 28.9274 147.163 28.7721L141.06 19.4136C141.013 19.3415 141.118 19.2694 141.176 19.3304Z" fill="#FFF2DC"/>
<path opacity="0.85" d="M139.207 20.5947L141.194 24.9858C141.229 25.0578 141.089 25.1521 140.897 25.1854L139.195 25.4792C139.003 25.5125 138.839 25.4737 138.839 25.3905L139.067 20.6113C139.067 20.5836 139.189 20.5615 139.207 20.5947Z" fill="#FFD283"/>
<path opacity="0.85" d="M136.49 16.9798L125.041 15.3443C124.849 15.3165 124.668 15.4551 124.662 15.6437L124.575 17.2847C124.563 17.4732 124.726 17.6285 124.925 17.6174L136.49 17.1184C136.565 17.1129 136.577 16.9909 136.49 16.9798Z" fill="#FFF2DC"/>
<path opacity="0.85" d="M136.508 19.2418L131.576 20.1676C131.495 20.1843 131.489 20.3451 131.57 20.5169L132.276 22.0194C132.357 22.1913 132.485 22.2966 132.55 22.2467L136.566 19.3693C136.595 19.3471 136.543 19.2362 136.508 19.2418Z" fill="#FFD283"/>
</g>
<path opacity="0.85" d="M136.717 15.8821L132.887 12.7829C132.823 12.733 132.689 12.8272 132.596 12.9936L131.797 14.4517C131.704 14.618 131.698 14.7788 131.78 14.801L136.647 15.9985C136.682 16.0152 136.746 15.9098 136.717 15.8821Z" fill="#FFD283"/>
<path opacity="0.85" d="M141.893 18.5931L145.723 21.6923C145.787 21.7422 145.921 21.6479 146.015 21.4816L146.813 20.0235C146.906 19.8572 146.912 19.6964 146.831 19.6742L141.963 18.4767C141.922 18.4656 141.864 18.5709 141.893 18.5931Z" fill="#FFD283"/>
</g>
<path d="M140.715 17.379C140.494 18.0776 139.719 18.4712 138.99 18.255C138.256 18.0443 137.842 17.3069 138.069 16.6139C138.291 15.9153 139.066 15.5217 139.794 15.7379C140.523 15.9486 140.937 16.686 140.715 17.379Z" fill="#FFF2DC"/>
<g opacity="0.85">
<g opacity="0.85">
<path opacity="0.85" d="M16.1926 122.999L20.5703 112.803C20.6461 112.631 20.8618 112.553 21.0308 112.642L22.5639 113.407C22.7388 113.496 22.7971 113.707 22.6863 113.862L16.3208 123.06C16.2742 123.132 16.1576 123.076 16.1926 122.999Z" fill="#FFF2DC"/>
<path opacity="0.85" d="M12.9114 123.67L5.02455 115.608C4.89048 115.47 4.90797 115.253 5.06536 115.143L6.44104 114.145C6.59842 114.034 6.81994 114.073 6.92487 114.228L13.028 123.586C13.0688 123.658 12.9697 123.731 12.9114 123.67Z" fill="#FFF2DC"/>
<path opacity="0.85" d="M14.8817 122.405L12.8939 118.014C12.8589 117.942 12.9988 117.848 13.1912 117.815L14.8933 117.521C15.0857 117.488 15.2489 117.526 15.2489 117.61L15.0216 122.389C15.0216 122.416 14.8933 122.439 14.8817 122.405Z" fill="#FFD283"/>
<path opacity="0.85" d="M17.5981 126.02L29.0466 127.656C29.239 127.683 29.4197 127.545 29.4255 127.356L29.513 125.715C29.5246 125.527 29.3614 125.372 29.1632 125.383L17.5981 125.882C17.5165 125.887 17.5107 126.009 17.5981 126.02Z" fill="#FFF2DC"/>
<path opacity="0.85" d="M17.5806 123.759L22.5121 122.833C22.5937 122.816 22.5996 122.656 22.518 122.484L21.8126 120.981C21.731 120.809 21.6028 120.703 21.5386 120.753L17.5223 123.632C17.4932 123.659 17.5398 123.77 17.5806 123.759Z" fill="#FFD283"/>
</g>
<g opacity="0.85">
<path opacity="0.85" d="M13.3143 128.621L8.93655 138.816C8.86077 138.988 8.64509 139.066 8.47604 138.977L6.94297 138.212C6.7681 138.123 6.70979 137.913 6.82055 137.757L13.186 128.56C13.2385 128.488 13.3493 128.543 13.3143 128.621Z" fill="#FFF2DC"/>
<path opacity="0.85" d="M16.6022 127.95L24.4891 136.011C24.6231 136.15 24.6057 136.366 24.4483 136.477L23.0726 137.475C22.9152 137.585 22.6937 137.547 22.5888 137.391L16.4856 128.033C16.439 127.961 16.5439 127.889 16.6022 127.95Z" fill="#FFF2DC"/>
<path opacity="0.85" d="M14.6324 129.214L16.6201 133.605C16.6551 133.677 16.5152 133.771 16.3228 133.805L14.6207 134.098C14.4283 134.132 14.2651 134.093 14.2651 134.01L14.4924 129.23C14.4924 129.203 14.6149 129.181 14.6324 129.214Z" fill="#FFD283"/>
<path opacity="0.85" d="M11.9154 125.599L0.466916 123.963C0.274553 123.936 0.0938515 124.074 0.0880224 124.263L0.000588194 125.904C-0.0110702 126.092 0.15215 126.248 0.350343 126.237L11.9154 125.738C11.9912 125.732 12.0029 125.61 11.9154 125.599Z" fill="#FFF2DC"/>
<path opacity="0.85" d="M11.9334 127.861L7.00188 128.787C6.92027 128.803 6.91446 128.964 6.99606 129.136L7.70139 130.639C7.783 130.811 7.91124 130.916 7.97536 130.866L11.9917 127.988C12.0208 127.966 11.9684 127.855 11.9334 127.861Z" fill="#FFD283"/>
</g>
<path opacity="0.85" d="M12.1428 124.501L8.31303 121.402C8.24891 121.352 8.11484 121.446 8.02157 121.613L7.22298 123.071C7.12971 123.237 7.12388 123.398 7.20549 123.42L12.0728 124.617C12.1078 124.634 12.1719 124.529 12.1428 124.501Z" fill="#FFD283"/>
<path opacity="0.85" d="M17.3191 127.212L21.1489 130.312C21.213 130.362 21.3471 130.267 21.4403 130.101L22.2389 128.643C22.3322 128.476 22.338 128.316 22.2564 128.293L17.389 127.096C17.3482 127.085 17.29 127.19 17.3191 127.212Z" fill="#FFD283"/>
</g>
<path d="M16.1416 125.999C15.9201 126.697 15.1448 127.091 14.4161 126.875C13.6817 126.664 13.2678 125.927 13.4951 125.233C13.7166 124.534 14.4919 124.141 15.2206 124.357C15.9492 124.568 16.3631 125.305 16.1416 125.999Z" fill="#FFF2DC"/>
<g opacity="0.85">
<g opacity="0.85">
<path opacity="0.85" d="M23.9743 22.813L22.4699 7.90453C22.4444 7.65102 22.6525 7.43224 22.9227 7.43224L25.2741 7.43571C25.5407 7.43571 25.7488 7.65449 25.7232 7.908L24.1714 22.813C24.1605 22.9276 23.9852 22.9276 23.9743 22.813Z" fill="#FFF2DC"/>
<path opacity="0.85" d="M20.4659 25.5982L5.60521 20.6391C5.35327 20.5558 5.23278 20.2815 5.34597 20.0522L6.33546 18.0207C6.44865 17.7915 6.74441 17.7012 6.97444 17.8297L20.5462 25.4281C20.6521 25.4871 20.5791 25.6364 20.4659 25.5982Z" fill="#FFF2DC"/>
<path opacity="0.85" d="M21.9988 22.8896L16.6862 18.7952C16.5949 18.7257 16.7008 18.5313 16.9089 18.3715L18.7601 16.9928C18.9719 16.8366 19.1946 16.7879 19.2457 16.8852L22.1521 22.7715C22.174 22.8202 22.0389 22.9209 21.9988 22.8896Z" fill="#FFD283"/>
<path opacity="0.85" d="M27.6737 25.6086L42.549 20.6877C42.8009 20.6044 42.9251 20.3335 42.8119 20.1008L41.826 18.0693C41.7129 17.8401 41.4171 17.7498 41.1871 17.8783L27.5897 25.4384C27.4875 25.494 27.5605 25.6468 27.6737 25.6086Z" fill="#FFF2DC"/>
<path opacity="0.85" d="M26.1511 22.8964L31.4747 18.8159C31.566 18.7465 31.4601 18.552 31.252 18.3923L29.4044 17.0066C29.1926 16.8504 28.9699 16.7983 28.9188 16.899L25.9978 22.7783C25.9722 22.8235 26.111 22.9277 26.1511 22.8964Z" fill="#FFD283"/>
</g>
<g opacity="0.85">
<path opacity="0.85" d="M24.2475 31.3109L25.7554 46.2195C25.781 46.473 25.5729 46.6918 25.3027 46.6918L22.9513 46.6883C22.6847 46.6883 22.4766 46.4695 22.5022 46.216L24.0539 31.3109C24.0612 31.1998 24.2329 31.1998 24.2475 31.3109Z" fill="#FFF2DC"/>
<path opacity="0.85" d="M27.7567 28.5256L42.6175 33.4846C42.8694 33.568 42.9899 33.8423 42.8767 34.0715L41.8872 36.1031C41.774 36.3323 41.4783 36.4226 41.2482 36.2941L27.6764 28.6957C27.5705 28.6402 27.6436 28.4909 27.7567 28.5256Z" fill="#FFF2DC"/>
<path opacity="0.85" d="M26.2235 31.2346L31.5361 35.3289C31.6274 35.3984 31.5215 35.5928 31.3134 35.7526L29.4622 37.1313C29.2504 37.2875 29.0277 37.3361 28.9766 37.2389L26.0701 31.3526C26.0482 31.3075 26.1833 31.2033 26.2235 31.2346Z" fill="#FFD283"/>
<path opacity="0.85" d="M20.5494 28.5188L5.67413 33.4397C5.42219 33.523 5.3017 33.7939 5.41124 34.0266L6.39708 36.0581C6.51027 36.2873 6.80603 36.3776 7.03606 36.2491L20.6298 28.6889C20.7356 28.6299 20.6626 28.4806 20.5494 28.5188Z" fill="#FFF2DC"/>
<path opacity="0.85" d="M22.0725 31.2309L16.749 35.3114C16.6577 35.3809 16.7636 35.5754 16.9717 35.7351L18.8193 37.1207C19.031 37.277 19.2538 37.3291 19.3049 37.2284L22.2259 31.349C22.2515 31.3004 22.1127 31.1997 22.0725 31.2309Z" fill="#FFD283"/>
</g>
<path opacity="0.85" d="M20.0937 27.0638L13.4228 25.6399C13.3096 25.6156 13.211 25.8136 13.2147 26.0706L13.2256 28.307C13.2256 28.5605 13.3242 28.7585 13.4374 28.7342L20.0937 27.2513C20.1448 27.2374 20.1448 27.0742 20.0937 27.0638Z" fill="#FFD283"/>
<path opacity="0.85" d="M28.1296 27.2131L34.8005 28.6369C34.9137 28.6612 35.0123 28.4633 35.0086 28.2063L34.9977 25.9699C34.9977 25.7164 34.8991 25.5184 34.7859 25.5427L28.1296 27.0256C28.0785 27.0395 28.0785 27.2027 28.1296 27.2131Z" fill="#FFD283"/>
</g>
<path d="M93.0288 50.3588C93.0288 51.2071 92.306 51.8891 91.42 51.8891C90.5281 51.8891 89.8111 51.2016 89.8111 50.3588C89.8111 49.5106 90.5339 48.8286 91.42 48.8286C92.306 48.8286 93.0288 49.5106 93.0288 50.3588Z" fill="#439C66"/>
<path d="M77.9443 51.5453C77.9443 53.0478 76.6677 54.2619 75.088 54.2619C73.5083 54.2619 72.2317 53.0478 72.2317 51.5453C72.2317 50.0428 73.5083 48.8286 75.088 48.8286C76.6619 48.8286 77.9443 50.0428 77.9443 51.5453Z" fill="#FF7C00"/>
<path d="M45.7627 36.8971C45.7627 38.3996 44.4861 39.6138 42.9064 39.6138C41.3267 39.6138 40.0501 38.3996 40.0501 36.8971C40.0501 35.3946 41.3267 34.1805 42.9064 34.1805C44.4861 34.1805 45.7627 35.3946 45.7627 36.8971Z" fill="#FFF2DC"/>
<path d="M107.685 50.3588C107.685 51.2071 106.962 51.889 106.076 51.889C105.184 51.889 104.467 51.2015 104.467 50.3588C104.467 49.5106 105.19 48.8286 106.076 48.8286C106.968 48.8231 107.685 49.5106 107.685 50.3588Z" fill="#4450E4"/>
<path d="M121.979 49.2795C123.557 49.2795 124.836 48.0632 124.836 46.5628C124.836 45.0625 123.557 43.8462 121.979 43.8462C120.402 43.8462 119.123 45.0625 119.123 46.5628C119.123 48.0632 120.402 49.2795 121.979 49.2795Z" fill="#439C66"/>
<path d="M174.78 36.8968C175.669 36.8968 176.389 36.2117 176.389 35.3666C176.389 34.5215 175.669 33.8364 174.78 33.8364C173.892 33.8364 173.171 34.5215 173.171 35.3666C173.171 36.2117 173.892 36.8968 174.78 36.8968Z" fill="#439C66"/>
<path d="M187.465 39.5967C189.042 39.5967 190.321 38.3804 190.321 36.88C190.321 35.3797 189.042 34.1634 187.465 34.1634C185.887 34.1634 184.608 35.3797 184.608 36.88C184.608 38.3804 185.887 39.5967 187.465 39.5967Z" fill="#4450E4"/>
<path d="M189.184 27.9207C189.184 29.4232 187.907 30.6374 186.328 30.6374C184.748 30.6374 183.471 29.4232 183.471 27.9207C183.471 26.4183 184.748 25.2041 186.328 25.2041C187.902 25.2041 189.184 26.4238 189.184 27.9207Z" fill="#FF7C00"/>
<g opacity="0.85">
<g opacity="0.85">
<path opacity="0.85" d="M269.529 10.3936L273.906 0.197764C273.982 0.0258927 274.198 -0.0517228 274.367 0.0369848L275.9 0.802082C276.075 0.89079 276.133 1.10147 276.022 1.25671L269.657 10.4546C269.61 10.5267 269.494 10.4712 269.529 10.3936Z" fill="#FFF2DC"/>
<path opacity="0.85" d="M266.248 11.0645L258.361 3.00329C258.227 2.86468 258.244 2.64846 258.402 2.53758L259.777 1.53963C259.935 1.42875 260.156 1.46756 260.261 1.6228L266.364 10.9813C266.405 11.0534 266.306 11.1255 266.248 11.0645Z" fill="#FFF2DC"/>
<path opacity="0.85" d="M268.218 9.80033L266.23 5.40933C266.195 5.33726 266.335 5.24301 266.527 5.20974L268.23 4.9159C268.422 4.88264 268.585 4.92145 268.585 5.00461L268.358 9.78368C268.358 9.81141 268.23 9.83359 268.218 9.80033Z" fill="#FFD283"/>
<path opacity="0.85" d="M270.934 13.4152L282.383 15.0507C282.575 15.0784 282.756 14.9398 282.762 14.7513L282.849 13.1103C282.861 12.9217 282.698 12.7665 282.499 12.7776L270.934 13.2766C270.853 13.2821 270.847 13.4041 270.934 13.4152Z" fill="#FFF2DC"/>
<path opacity="0.85" d="M270.917 11.1531L275.848 10.2273C275.93 10.2106 275.936 10.0498 275.854 9.87798L275.149 8.3755C275.067 8.20363 274.939 8.09829 274.875 8.14818L270.858 11.0256C270.829 11.0533 270.876 11.1642 270.917 11.1531Z" fill="#FFD283"/>
</g>
<g opacity="0.85">
<path opacity="0.85" d="M266.65 16.0154L262.273 26.2112C262.197 26.3831 261.981 26.4607 261.812 26.372L260.279 25.6069C260.104 25.5182 260.046 25.3075 260.157 25.1523L266.522 15.9544C266.575 15.8823 266.685 15.9378 266.65 16.0154Z" fill="#FFF2DC"/>
<path opacity="0.85" d="M269.938 15.3447L277.825 23.406C277.959 23.5446 277.942 23.7608 277.784 23.8717L276.409 24.8696C276.251 24.9805 276.03 24.9417 275.925 24.7865L269.822 15.4278C269.775 15.3558 269.88 15.2837 269.938 15.3447Z" fill="#FFF2DC"/>
<path opacity="0.85" d="M267.968 16.6085L269.956 20.9995C269.991 21.0716 269.851 21.1658 269.659 21.1991L267.957 21.493C267.764 21.5262 267.601 21.4874 267.601 21.4042L267.829 16.6251C267.829 16.5974 267.951 16.5752 267.968 16.6085Z" fill="#FFD283"/>
<path opacity="0.85" d="M265.252 12.9938L253.803 11.3582C253.611 11.3305 253.43 11.4691 253.424 11.6576L253.337 13.2987C253.325 13.4872 253.488 13.6425 253.686 13.6314L265.252 13.1324C265.327 13.1268 265.339 13.0049 265.252 12.9938Z" fill="#FFF2DC"/>
<path opacity="0.85" d="M265.269 15.2557L260.338 16.1816C260.256 16.1982 260.251 16.359 260.332 16.5309L261.038 18.0334C261.119 18.2053 261.247 18.3106 261.311 18.2607L265.328 15.3832C265.357 15.361 265.304 15.2502 265.269 15.2557Z" fill="#FFD283"/>
</g>
<path opacity="0.85" d="M265.479 11.8961L261.649 8.79683C261.585 8.74693 261.451 8.84119 261.357 9.00752L260.559 10.4657C260.466 10.632 260.46 10.7928 260.541 10.815L265.409 12.0125C265.444 12.0292 265.508 11.9238 265.479 11.8961Z" fill="#FFD283"/>
<path opacity="0.85" d="M270.655 14.6073L274.485 17.7065C274.549 17.7564 274.683 17.6622 274.776 17.4959L275.575 16.0377C275.668 15.8714 275.674 15.7106 275.592 15.6884L270.725 14.4909C270.684 14.4798 270.626 14.5851 270.655 14.6073Z" fill="#FFD283"/>
</g>
<path d="M269.477 13.3937C269.256 14.0925 268.48 14.4863 267.752 14.27C267.017 14.0592 266.603 13.3216 266.831 12.6283C267.052 11.9294 267.827 11.5356 268.556 11.7519C269.285 11.9627 269.699 12.7004 269.477 13.3937Z" fill="#FFF2DC"/>
<g opacity="0.85">
<g opacity="0.85">
<path opacity="0.85" d="M267.436 126.984L271.813 116.789C271.889 116.617 272.105 116.539 272.274 116.628L273.807 117.393C273.982 117.482 274.04 117.692 273.929 117.848L267.564 127.045C267.517 127.118 267.401 127.062 267.436 126.984Z" fill="#FFF2DC"/>
<path opacity="0.85" d="M264.154 127.655L256.268 119.594C256.133 119.456 256.151 119.239 256.308 119.128L257.684 118.131C257.841 118.02 258.063 118.058 258.168 118.214L264.271 127.572C264.312 127.644 264.213 127.716 264.154 127.655Z" fill="#FFF2DC"/>
<path opacity="0.85" d="M266.125 126.391L264.137 122C264.102 121.928 264.242 121.834 264.434 121.801L266.136 121.507C266.329 121.474 266.492 121.512 266.492 121.596L266.265 126.375C266.265 126.402 266.136 126.424 266.125 126.391Z" fill="#FFD283"/>
<path opacity="0.85" d="M268.841 130.006L280.29 131.642C280.482 131.669 280.663 131.531 280.669 131.342L280.756 129.701C280.768 129.513 280.604 129.358 280.406 129.369L268.841 129.868C268.76 129.873 268.754 129.995 268.841 130.006Z" fill="#FFF2DC"/>
<path opacity="0.85" d="M268.824 127.744L273.755 126.818C273.837 126.802 273.843 126.641 273.761 126.469L273.056 124.967C272.974 124.795 272.846 124.689 272.782 124.739L268.765 127.617C268.736 127.644 268.783 127.755 268.824 127.744Z" fill="#FFD283"/>
</g>
<g opacity="0.85">
<path opacity="0.85" d="M264.557 132.606L260.179 142.802C260.103 142.974 259.888 143.052 259.719 142.963L258.185 142.198C258.011 142.109 257.952 141.899 258.063 141.743L264.429 132.545C264.481 132.473 264.592 132.529 264.557 132.606Z" fill="#FFF2DC"/>
<path opacity="0.85" d="M267.845 131.935L275.732 139.997C275.866 140.135 275.848 140.351 275.691 140.462L274.315 141.46C274.158 141.571 273.936 141.532 273.831 141.377L267.728 132.018C267.682 131.946 267.786 131.874 267.845 131.935Z" fill="#FFF2DC"/>
<path opacity="0.85" d="M265.875 133.2L267.863 137.591C267.898 137.663 267.758 137.757 267.565 137.79L265.863 138.084C265.671 138.117 265.508 138.079 265.508 137.995L265.735 133.216C265.735 133.189 265.857 133.166 265.875 133.2Z" fill="#FFD283"/>
<path opacity="0.85" d="M263.158 129.585L251.709 127.949C251.517 127.921 251.336 128.06 251.331 128.249L251.243 129.89C251.231 130.078 251.395 130.233 251.593 130.222L263.158 129.723C263.234 129.718 263.245 129.596 263.158 129.585Z" fill="#FFF2DC"/>
<path opacity="0.85" d="M263.176 131.847L258.244 132.773C258.163 132.789 258.157 132.95 258.239 133.122L258.944 134.624C259.025 134.796 259.154 134.902 259.218 134.852L263.234 131.974C263.263 131.952 263.211 131.841 263.176 131.847Z" fill="#FFD283"/>
</g>
<path opacity="0.85" d="M263.385 128.487L259.556 125.388C259.491 125.338 259.357 125.432 259.264 125.598L258.465 127.057C258.372 127.223 258.366 127.384 258.448 127.406L263.315 128.604C263.35 128.62 263.414 128.515 263.385 128.487Z" fill="#FFD283"/>
<path opacity="0.85" d="M268.562 131.198L272.391 134.297C272.456 134.347 272.59 134.253 272.683 134.087L273.481 132.629C273.575 132.462 273.581 132.301 273.499 132.279L268.632 131.082C268.591 131.071 268.532 131.176 268.562 131.198Z" fill="#FFD283"/>
</g>
<path d="M267.384 129.984C267.162 130.683 266.387 131.076 265.659 130.86C264.924 130.649 264.51 129.912 264.738 129.219C264.959 128.52 265.734 128.127 266.463 128.343C267.192 128.554 267.605 129.291 267.384 129.984Z" fill="#FFF2DC"/>
<g opacity="0.85">
<g opacity="0.85">
<path opacity="0.85" d="M156.119 118.858L158.676 104C158.718 103.749 158.982 103.587 159.241 103.65L161.527 104.228C161.786 104.295 161.93 104.56 161.837 104.799L156.309 118.91C156.266 119.013 156.1 118.969 156.119 118.858Z" fill="#FFF2DC"/>
<path opacity="0.85" d="M151.955 120.708L138.851 112.264C138.63 112.12 138.583 111.825 138.758 111.63L140.268 109.898C140.439 109.703 140.753 109.688 140.942 109.869L152.087 120.564C152.168 120.645 152.056 120.77 151.955 120.708Z" fill="#FFF2DC"/>
<path opacity="0.85" d="M154.174 118.449L150.115 113.173C150.045 113.085 150.2 112.919 150.448 112.816L152.621 111.928C152.869 111.829 153.101 111.832 153.121 111.943L154.356 118.372C154.364 118.423 154.205 118.49 154.174 118.449Z" fill="#FFD283"/>
<path opacity="0.85" d="M158.958 122.476L174.743 121.323C175.01 121.305 175.204 121.069 175.157 120.818L174.746 118.604C174.7 118.354 174.437 118.195 174.177 118.261L158.923 122.288C158.807 122.321 158.838 122.483 158.958 122.476Z" fill="#FFF2DC"/>
<path opacity="0.85" d="M158.208 119.466L164.483 116.799C164.587 116.754 164.541 116.537 164.378 116.334L162.957 114.537C162.794 114.334 162.589 114.231 162.515 114.315L158.091 119.315C158.056 119.355 158.161 119.488 158.208 119.466Z" fill="#FFD283"/>
</g>
<g opacity="0.85">
<path opacity="0.85" d="M154.088 127.184L151.532 142.043C151.489 142.293 151.226 142.455 150.966 142.393L148.681 141.814C148.421 141.748 148.278 141.483 148.371 141.243L153.899 127.133C153.937 127.03 154.108 127.07 154.088 127.184Z" fill="#FFF2DC"/>
<path opacity="0.85" d="M158.248 125.331L171.353 133.776C171.573 133.919 171.62 134.214 171.449 134.409L169.939 136.141C169.768 136.336 169.455 136.351 169.265 136.17L158.121 125.475C158.039 125.398 158.152 125.269 158.248 125.331Z" fill="#FFF2DC"/>
<path opacity="0.85" d="M156.033 127.594L160.092 132.869C160.162 132.958 160.007 133.123 159.759 133.226L157.586 134.114C157.338 134.214 157.106 134.21 157.086 134.1L155.851 127.671C155.839 127.619 156.002 127.553 156.033 127.594Z" fill="#FFD283"/>
<path opacity="0.85" d="M151.249 123.567L135.464 124.72C135.197 124.738 135.003 124.974 135.05 125.225L135.46 127.439C135.507 127.689 135.77 127.848 136.03 127.781L151.28 123.747C151.396 123.721 151.369 123.556 151.249 123.567Z" fill="#FFF2DC"/>
<path opacity="0.85" d="M151.997 126.573L145.722 129.24C145.613 129.284 145.664 129.502 145.826 129.704L147.248 131.502C147.411 131.705 147.616 131.808 147.689 131.723L152.113 126.724C152.152 126.687 152.047 126.555 151.997 126.573Z" fill="#FFD283"/>
</g>
<path opacity="0.85" d="M151.199 122.041L145.098 119.031C144.994 118.98 144.847 119.149 144.781 119.396L144.188 121.573C144.122 121.82 144.165 122.038 144.281 122.041L151.153 122.222C151.199 122.222 151.246 122.063 151.199 122.041Z" fill="#FFD283"/>
<path opacity="0.85" d="M158.969 124.149L165.07 127.159C165.175 127.21 165.322 127.041 165.388 126.794L165.981 124.617C166.046 124.37 166.004 124.152 165.888 124.149L159.016 123.968C158.965 123.964 158.923 124.123 158.969 124.149Z" fill="#FFD283"/>
</g>
</g>
</svg>
