<svg width="16" height="16" viewBox="0 0 16 16" fill="none" xmlns="http://www.w3.org/2000/svg">
<path d="M11.0613 10.0284C11.3661 10.3307 11.6682 10.6302 11.9689 10.9297C13.2382 12.1941 14.5074 13.4586 15.7781 14.723C15.979 14.9231 16.0455 15.1619 15.9693 15.4311C15.8945 15.6934 15.713 15.8618 15.4455 15.9197C15.1864 15.9749 14.9619 15.9004 14.7735 15.7127C14.0003 14.9397 13.2243 14.1694 12.4511 13.3978C11.6765 12.6262 10.9019 11.8546 10.1287 11.083C10.1093 11.0636 10.0941 11.0388 10.0761 11.0153C8.56294 12.1596 6.88213 12.5862 5.02811 12.2397C3.49279 11.9526 2.24292 11.1713 1.28543 9.94139C-0.610158 7.5092 -0.384295 4.01552 1.79813 1.82627C3.9847 -0.367124 7.49321 -0.61835 9.94583 1.2548C11.3204 2.30525 12.1324 3.69527 12.3472 5.4083C12.562 7.11718 12.1061 8.6549 11.0613 10.0284ZM1.41153 6.16887C1.40737 8.80674 3.53991 10.9408 6.18653 10.9477C8.83315 10.9546 10.9823 8.82745 10.9879 6.19648C10.992 3.55171 8.85947 1.41216 6.21424 1.40802C3.56208 1.4025 1.41568 3.53101 1.41153 6.16887Z" fill="#7C808A"/>
</svg>
