<svg width="14" height="13" viewBox="0 0 14 13" fill="none" xmlns="http://www.w3.org/2000/svg">
<path d="M14 3.94334C13.9232 2.47466 13.3486 1.28672 12.1285 0.491728C11.4404 0.0432873 10.6711 -0.0771558 9.86924 0.0446618C8.94583 0.184864 8.17408 0.630211 7.52552 1.3173C7.36723 1.485 7.20795 1.65166 7.0548 1.82433C7.00512 1.88035 6.98161 1.8721 6.93591 1.82158C6.76421 1.63173 6.59003 1.44393 6.4122 1.26026C5.7951 0.622995 5.06558 0.193283 4.20161 0.0584071C2.80714 -0.159112 1.66649 0.312523 0.812786 1.48689C0.363748 2.10439 0.0879002 2.79888 0.0173655 3.57342C-0.0362816 4.16224 0.0370684 4.73816 0.200159 5.30293C0.426169 6.08624 0.797885 6.79429 1.24262 7.46386C1.84184 8.36589 2.55596 9.16398 3.31611 9.91997C4.30128 10.9 5.37355 11.7709 6.467 12.6152C6.62397 12.7364 6.78408 12.8534 6.94088 12.9749C6.97929 13.0046 7.00578 13.0106 7.04834 12.9785C8.59034 11.8132 10.0941 10.601 11.4092 9.15728C12.1181 8.37912 12.7633 7.55114 13.2597 6.60718C13.588 5.98314 13.8348 5.3287 13.9417 4.62253C13.9757 4.39866 13.9891 4.17323 14 3.94334Z" fill="#F54748"/>
</svg>
