<svg width="18" height="16" viewBox="0 0 18 16" fill="none" xmlns="http://www.w3.org/2000/svg">
<path d="M14.5471 2.9083C14.9605 2.9083 15.3624 2.9083 15.7648 2.9083C16.2763 2.9083 16.7883 2.91315 17.2997 2.90649C17.7005 2.90104 18.002 2.57404 17.9963 2.16954C17.9905 1.77352 17.693 1.45985 17.2992 1.45682C16.4631 1.45137 15.627 1.455 14.7916 1.455C14.7131 1.455 14.6353 1.455 14.5471 1.455C14.5171 1.06927 14.4081 0.731985 14.1579 0.459491C13.8903 0.16762 13.5634 0.0101788 13.1777 0.00351779C12.774 -0.00314317 12.3704 0.00170117 11.9668 0.00170117C11.0097 0.00170117 10.5144 0.446169 10.3673 1.455C10.2855 1.455 10.2007 1.455 10.1154 1.455C7.02365 1.455 3.93252 1.455 0.840813 1.45561C0.754324 1.45561 0.666679 1.45076 0.581921 1.4653C0.23481 1.52403 -0.0177398 1.86072 0.00359527 2.22707C0.0243525 2.58494 0.300542 2.87803 0.645924 2.90588C0.724917 2.91194 0.804486 2.9083 0.883481 2.9083C3.96077 2.9083 7.03749 2.9083 10.1148 2.9083C10.2001 2.9083 10.2849 2.9083 10.3668 2.9083C10.4907 3.74395 10.8672 4.25321 11.5372 4.32527C12.1496 4.39128 12.7787 4.39067 13.3904 4.32345C14.0575 4.24958 14.4594 3.70762 14.5471 2.9083Z" fill="#797979"/>
<path d="M9.01005 7.26884C8.90684 6.31996 8.3683 5.81615 7.48899 5.81554C7.13611 5.81554 6.78266 5.81554 6.42978 5.81554C5.47321 5.81554 4.97849 6.2594 4.8303 7.26884C4.75592 7.26884 4.67808 7.26884 4.60024 7.26884C3.3104 7.26884 2.02055 7.26581 0.73071 7.27005C0.169105 7.27187 -0.173969 7.85198 0.0912645 8.34428C0.235991 8.61254 0.464898 8.72456 0.757233 8.72335C2.03266 8.72033 3.30809 8.72214 4.5841 8.72214C4.66251 8.72214 4.74093 8.72214 4.82915 8.72214C4.84876 8.83356 4.86375 8.93529 4.88451 9.03581C5.02 9.68072 5.55047 10.1555 6.17608 10.1712C6.6731 10.1839 7.17071 10.1845 7.66773 10.1712C8.39309 10.1518 8.9126 9.5917 9.0112 8.72154C9.09192 8.72154 9.17668 8.72154 9.26087 8.72154C11.9201 8.72154 14.5794 8.72214 17.2381 8.72093C17.7847 8.72093 18.1324 8.2365 17.9513 7.73632C17.8435 7.439 17.595 7.26884 17.2542 7.26884C16.0434 7.26763 14.8331 7.26824 13.6222 7.26824C12.1663 7.26824 10.711 7.26824 9.2551 7.26824C9.17611 7.26884 9.09769 7.26884 9.01005 7.26884Z" fill="#797979"/>
<path d="M10.3737 14.5366C10.4781 15.4849 11.0166 15.9893 11.8948 15.9899C12.2407 15.9905 12.5884 15.9681 12.9321 15.9947C13.7035 16.0547 14.4473 15.6036 14.554 14.5366C14.6295 14.5366 14.7068 14.5366 14.7847 14.5366C15.5988 14.5366 16.4135 14.5378 17.2277 14.536C17.6844 14.5354 17.9986 14.2344 17.9969 13.8051C17.9946 13.3758 17.6826 13.0839 17.2208 13.0827C16.349 13.0809 15.4771 13.0809 14.6048 13.0797C14.5909 13.0797 14.5777 13.0724 14.5557 13.0669C14.5292 12.9325 14.5119 12.7914 14.4739 12.657C14.3032 12.0611 13.7808 11.6433 13.1852 11.6312C12.7602 11.6227 12.3347 11.6288 11.9097 11.6288C11.012 11.6288 10.4833 12.1211 10.3731 13.0821C10.2918 13.0821 10.2076 13.0821 10.1235 13.0821C7.00292 13.0821 3.88297 13.0815 0.762432 13.0827C0.216397 13.0827 -0.132443 13.5677 0.0486077 14.0667C0.153548 14.3549 0.404368 14.533 0.724953 14.5348C1.30155 14.5378 1.87814 14.536 2.45474 14.536C5.0056 14.536 7.55703 14.536 10.1079 14.536C10.1926 14.5366 10.278 14.5366 10.3737 14.5366Z" fill="#797979"/>
</svg>
