<svg width="20" height="22" viewBox="0 0 20 22" fill="none" xmlns="http://www.w3.org/2000/svg">
<path d="M9.84755 0C6.7047 0 4.13557 2.56913 4.13557 5.71199C4.13557 8.85484 6.7047 11.424 9.84755 11.424C12.9904 11.424 15.5595 8.85484 15.5595 5.71199C15.5595 2.56913 12.9904 0 9.84755 0Z" fill="#797979"/>
<path d="M19.6504 15.9888C19.5008 15.6147 19.3012 15.2655 19.0768 14.9412C17.9294 13.2451 16.1584 12.1226 14.163 11.8482C13.9136 11.8233 13.6392 11.8732 13.4396 12.0228C12.392 12.7961 11.1449 13.1952 9.84781 13.1952C8.55073 13.1952 7.3036 12.7961 6.25598 12.0228C6.05641 11.8732 5.78204 11.7984 5.53263 11.8482C3.53717 12.1226 1.74129 13.2451 0.618854 14.9412C0.394368 15.2655 0.194803 15.6396 0.0451777 15.9888C-0.0296351 16.1385 -0.00471342 16.3131 0.0700994 16.4628C0.269664 16.812 0.519072 17.1612 0.743558 17.4605C1.09275 17.9344 1.46691 18.3584 1.89096 18.7575C2.24015 19.1067 2.63923 19.431 3.03836 19.7552C5.00884 21.2269 7.37846 22.0001 9.82289 22.0001C12.2673 22.0001 14.6369 21.2269 16.6074 19.7552C17.0065 19.4559 17.4056 19.1067 17.7548 18.7575C18.1539 18.3584 18.553 17.9344 18.9022 17.4605C19.1516 17.1362 19.3762 16.812 19.5757 16.4628C19.7003 16.3131 19.7252 16.1385 19.6504 15.9888Z" fill="#797979"/>
</svg>
