<svg width="182" height="126" viewBox="0 0 182 126" fill="none" xmlns="http://www.w3.org/2000/svg">
<path d="M7.09896 101.813C4.41607 97.0094 2.4161 91.8336 1.26165 86.4961C0.10719 81.1424 -0.266789 75.6431 0.188489 70.2247C0.627507 64.8063 1.87952 59.4526 3.89575 54.4062C5.91199 49.3598 8.67618 44.6369 12.0582 40.4315C15.4403 36.2262 19.4565 32.5223 23.9117 29.4815C28.367 26.4407 33.2612 24.0793 38.3993 22.4618C48.6594 19.2431 59.8299 19.1785 70.0574 22.1869C59.7486 19.4858 48.6919 19.9225 38.7083 23.3838C33.7327 25.1144 29.0011 27.5729 24.7735 30.6622C20.5297 33.7515 16.7574 37.4555 13.6192 41.6123C10.481 45.7691 7.96074 50.3949 6.1884 55.2634C4.41607 60.1319 3.37544 65.2592 3.11528 70.4026C2.83886 75.5622 3.35918 80.738 4.59493 85.7197C5.83069 90.7014 7.84692 95.4729 10.481 99.8561C11.0339 100.778 10.7249 101.975 9.81437 102.525C8.88756 103.075 7.68432 102.767 7.13148 101.862C7.11522 101.862 7.09896 101.829 7.09896 101.813Z" fill="white"/>
<path d="M111.439 73.9287C111.277 79.9456 110.138 85.9301 108.057 91.5264C105.992 97.1389 103 102.379 99.2604 106.989C95.5369 111.599 91.0654 115.594 86.0899 118.764C81.1306 121.934 75.651 124.279 69.9763 125.67C75.5697 123.956 80.8379 121.336 85.537 117.955C90.2362 114.575 94.3499 110.45 97.6995 105.808C101.049 101.166 103.618 96.0067 105.277 90.5883C106.935 85.1699 107.683 79.525 107.52 73.9125C107.488 72.845 108.333 71.9392 109.423 71.9231C110.496 71.8907 111.407 72.7318 111.423 73.8155C111.439 73.8478 111.439 73.8802 111.439 73.9287Z" fill="white"/>
<path d="M106.517 59.6916C104.555 56.2355 103.083 52.4948 102.225 48.6321C101.366 44.7693 101.067 40.7711 101.38 36.8406C101.68 32.8965 102.565 29.0067 103.996 25.3337C105.44 21.6608 107.43 18.2046 109.882 15.128C112.335 12.0378 115.237 9.32716 118.48 7.07729C121.709 4.84098 125.292 3.07904 129.025 1.88634C136.519 -0.512618 144.708 -0.621045 152.215 1.5475C144.654 -0.485511 136.519 -0.227996 129.148 2.27939C125.469 3.53985 121.968 5.3289 118.82 7.59232C115.673 9.85574 112.866 12.5664 110.523 15.6431C108.179 18.7061 106.285 22.108 104.95 25.7132C103.615 29.3184 102.811 33.1134 102.593 36.9355C102.361 40.7575 102.715 44.6202 103.615 48.3339C104.514 52.0475 105.985 55.6256 107.934 58.9055C108.165 59.2986 108.029 59.7865 107.648 60.0169C107.266 60.2473 106.748 60.0982 106.517 59.6916C106.517 59.7052 106.517 59.7052 106.517 59.6916Z" fill="white"/>
<path d="M182 39.5241C181.932 43.8748 181.155 48.2119 179.697 52.305C178.239 56.3981 176.114 60.2337 173.43 63.6221C170.746 67.0104 167.53 69.9651 163.919 72.3234C160.309 74.6817 156.33 76.4436 152.175 77.5279C156.289 76.3216 160.2 74.4377 163.688 71.9845C167.176 69.5449 170.255 66.5361 172.776 63.1342C175.296 59.7323 177.245 55.9237 178.526 51.9255C179.806 47.9272 180.419 43.7121 180.351 39.5377C180.338 39.0904 180.706 38.7245 181.155 38.7109C181.605 38.6974 181.973 39.0633 181.986 39.5106C182 39.497 182 39.5106 182 39.5241Z" fill="white"/>
</svg>
