<svg width="26" height="28" viewBox="0 0 26 28" fill="none" xmlns="http://www.w3.org/2000/svg">
<path d="M10.6618 23.9521C7.82529 23.9521 4.98879 23.9437 2.15228 23.9577C1.30531 23.9633 0.489603 23.8848 0.131487 23.0077C-0.249366 22.0718 0.245175 21.3824 0.998355 20.8696C1.73732 20.368 1.94765 19.7234 1.92775 18.8491C1.86807 16.4279 1.89649 14.004 1.90786 11.58C1.92775 7.05988 4.2015 3.99137 8.58984 2.64908C9.19239 2.46412 9.45671 2.28198 9.41124 1.63745C9.34871 0.737913 9.71819 0.0541535 10.7329 0.0177237C11.7646 -0.0187061 12.2136 0.679065 12.1397 1.55338C12.0687 2.39687 12.5092 2.59023 13.1487 2.70792C13.9928 2.86485 14.3879 3.08343 14.1463 4.17072C13.4415 7.34011 15.4139 10.333 18.6398 11.2129C19.3873 11.4174 19.7085 11.7145 19.6829 12.5272C19.6204 14.6233 19.6857 16.7194 19.6403 18.8155C19.6232 19.6562 19.7511 20.3231 20.5242 20.8472C21.2347 21.3292 21.8231 21.9765 21.4337 22.9657C21.0443 23.9577 20.1774 23.9521 19.3077 23.9521C17.8412 23.9465 16.3774 23.9521 14.9109 23.9521C13.4926 23.9521 12.0744 23.9521 10.6561 23.9521C10.6618 23.9549 10.6618 23.9549 10.6618 23.9521Z" fill="#4F5562"/>
<path d="M10.8384 24.9692C11.404 24.9692 11.9667 24.9692 12.5323 24.9692C13.9136 24.972 14.1296 25.2999 13.4446 26.4572C12.7966 27.5557 11.8104 28.1106 10.5058 27.9817C9.21831 27.8556 8.34007 27.1606 7.88248 25.964C7.62952 25.3055 7.71195 24.8991 8.58166 24.9496C9.332 24.9944 10.0852 24.958 10.8384 24.958C10.8384 24.9636 10.8384 24.9664 10.8384 24.9692Z" fill="#4F5562"/>
<path d="M14.8367 5.21868C14.9077 2.01566 17.281 -0.0468309 20.396 0.000808036C23.3206 0.0456447 25.6853 2.48644 25.6285 5.35599C25.5716 8.32642 23.1586 10.6495 20.1487 10.6327C17.1815 10.6159 14.7884 8.17509 14.8367 5.21868ZM18.8442 3.46444C19.7963 3.69703 19.8418 4.34436 19.8048 5.07576C19.7707 5.72029 19.8162 6.36761 19.8162 7.01214C19.8162 7.36523 19.9526 7.73233 20.2852 7.74074C20.6262 7.74914 20.7712 7.39325 20.7683 7.03176C20.7598 6.20228 20.7683 5.37 20.7655 4.54052C20.7598 2.81151 20.7087 2.77508 18.8442 3.46444Z" fill="#F54748"/>
<path d="M18.8446 3.46441C20.7091 2.77785 20.7602 2.81148 20.7659 4.53769C20.7687 5.36717 20.7602 6.19945 20.7687 7.02893C20.7716 7.39042 20.6266 7.74631 20.2856 7.73791C19.953 7.7295 19.8166 7.3624 19.8166 7.00931C19.8166 6.36198 19.7711 5.71465 19.8052 5.07293C19.8422 4.34433 19.7967 3.697 18.8446 3.46441Z" fill="#FDFDFD"/>
</svg>
