<svg width="22" height="22" viewBox="0 0 22 22" fill="none" xmlns="http://www.w3.org/2000/svg">
<path d="M21.409 9.56894C21.4085 9.56844 21.408 9.56793 21.4075 9.56743L12.4324 0.593506C12.0498 0.210815 11.5412 0 11.0001 0C10.4591 0 9.95048 0.210648 9.56775 0.593338L0.597282 9.56273C0.59426 9.56575 0.591239 9.56894 0.588217 9.57196C-0.197385 10.362 -0.196042 11.6439 0.592078 12.4319C0.952146 12.7921 1.4277 13.0007 1.93616 13.0226C1.95681 13.0246 1.97763 13.0256 1.99861 13.0256H2.35633V19.6298C2.35633 20.9367 3.41974 22 4.72707 22H8.23844C8.59431 22 8.88304 21.7115 8.88304 21.3555V16.1777C8.88304 15.5814 9.36817 15.0963 9.96459 15.0963H12.0357C12.6321 15.0963 13.1172 15.5814 13.1172 16.1777V21.3555C13.1172 21.7115 13.4058 22 13.7618 22H17.2732C18.5805 22 19.6439 20.9367 19.6439 19.6298V13.0256H19.9756C20.5165 13.0256 21.0251 12.8149 21.408 12.4322C22.197 11.6429 22.1973 10.3588 21.409 9.56894Z" fill="#F54748"/>
</svg>
