<svg width="25" height="20" viewBox="0 0 25 20" fill="none" xmlns="http://www.w3.org/2000/svg">
<path d="M0.000992341 4.57267C0.000992341 4.70756 0.000992341 4.7843 0.000992341 4.86337C0.000992341 8.86337 -0.00124043 12.8634 0.000992341 16.8634C0.000992341 18.6424 1.29823 19.9983 3.00406 19.9983C9.0035 20.0006 15.0007 20.0006 21.0002 19.9983C22.6948 19.9983 23.9965 18.6448 23.9988 16.8866C24.0032 12.868 24.001 8.85175 23.9988 4.83314C23.9988 4.76105 23.9898 4.68895 23.9809 4.58895C23.8693 4.66105 23.7866 4.71686 23.704 4.77268C20.0155 7.25872 16.3225 9.74244 12.6384 12.2401C12.1852 12.5471 11.8101 12.5424 11.3568 12.2355C8.14166 10.0517 4.91754 7.88663 1.69566 5.71454C1.1464 5.34244 0.594908 4.97267 0.000992341 4.57267ZM12.0021 0.000581395C9.0035 0.000581395 6.0049 -0.00174419 3.0063 0.00290698C1.58626 0.00523256 0.400657 0.979651 0.090303 2.37035C0.0501132 2.55174 0.0813719 2.64477 0.2332 2.74709C4.09365 5.34244 7.94964 7.94244 11.8056 10.5471C11.953 10.6471 12.0512 10.6494 12.1986 10.5494C13.2212 9.84942 14.2505 9.16105 15.2776 8.47035C18.0998 6.56802 20.922 4.66337 23.7487 2.76802C23.9206 2.65174 23.9519 2.54709 23.9072 2.34942C23.5902 0.972674 22.4068 0.00755814 20.9979 0.00755814C17.9993 -0.00174419 15.0007 0.000581395 12.0021 0.000581395Z" fill="white"/>
<path d="M0.000976563 4.57275C0.594892 4.97275 1.14639 5.34252 1.69565 5.71461C4.91753 7.88671 8.14164 10.0518 11.3568 12.2355C11.8101 12.5425 12.1852 12.5472 12.6384 12.2402C16.3225 9.74252 20.0155 7.26113 23.704 4.77275C23.7866 4.71694 23.8715 4.66345 23.9809 4.58903C23.9876 4.68903 23.9987 4.76113 23.9987 4.83322C23.9987 8.85182 24.001 12.8681 23.9987 16.8867C23.9965 18.6448 22.6948 19.9983 21.0001 19.9983C15.0007 20.0007 9.00349 20.0007 3.00405 19.9983C1.29821 19.9983 0.000976562 18.6425 0.000976562 16.8635C0.000976563 12.8635 0.000976563 8.86345 0.000976563 4.86345C0.000976563 4.78438 0.000976563 4.70764 0.000976563 4.57275Z" fill="#797979"/>
<path d="M12.002 0.000581395C15.0006 0.000581395 17.9992 -0.00174419 20.9978 0.00290698C22.4067 0.00523256 23.5901 0.970349 23.9071 2.34477C23.954 2.54244 23.9228 2.64709 23.7486 2.76337C20.9219 4.65872 18.0997 6.56337 15.2775 8.4657C14.2504 9.15872 13.2211 9.84709 12.1985 10.5448C12.0511 10.6471 11.9507 10.6424 11.8055 10.5424C7.94955 7.94244 4.09356 5.34244 0.233111 2.74709C0.0812833 2.64477 0.0500246 2.55174 0.0902144 2.37035C0.400569 0.979651 1.58617 0.00523256 3.00621 0.00290698C6.00481 -0.00174419 9.00342 0.000581395 12.002 0.000581395Z" fill="#797979"/>
</svg>
