<svg width="16" height="10" viewBox="0 0 16 10" fill="none" xmlns="http://www.w3.org/2000/svg">
<path d="M8.69694 8.68332L8.69677 8.68349C8.51581 8.86468 8.27009 8.96707 8.01344 8.96752C7.75743 8.96798 7.51088 8.86706 7.32896 8.68573L8.69694 8.68332ZM8.69694 8.68332L15.3083 2.05553L15.3083 2.05545C15.6852 1.67748 15.6833 1.06608 15.304 0.690246L15.304 0.690152C14.9253 0.315187 14.3139 0.317355 13.9377 0.694426L13.9377 0.694434L8.0093 6.63756L2.05985 0.71516L2.0598 0.715108C1.68229 0.339444 1.07114 0.339432 0.69379 0.715652L0.693657 0.715784C0.504642 0.904406 0.409813 1.15263 0.410253 1.39992C0.410691 1.64648 0.505752 1.89348 0.694211 2.08119L0.694294 2.08127L7.32863 8.68539L8.69694 8.68332Z" fill="white" stroke="white" stroke-width="0.8"/>
</svg>
