<svg width="23" height="23" viewBox="0 0 23 23" fill="none" xmlns="http://www.w3.org/2000/svg">
<path d="M18.3519 20.7604C17.0435 20.7604 15.735 20.7604 14.4266 20.758C14.3367 20.758 14.2799 20.7698 14.2515 20.8735C13.7404 22.725 11.3435 23.6154 9.65648 22.2468C9.21639 21.8887 8.90879 21.4435 8.755 20.8994C8.72187 20.7816 8.66982 20.758 8.55624 20.758C5.98191 20.7604 3.40758 20.7604 0.833253 20.7604C0.757538 20.7604 0.679456 20.7627 0.603741 20.7533C0.222797 20.6968 -0.0185468 20.3882 0.00511431 19.9878C0.0264093 19.6203 0.303244 19.3494 0.67709 19.3305C0.738609 19.3282 0.802494 19.3282 0.864013 19.3282C3.42415 19.3282 5.98428 19.3282 8.54441 19.3305C8.66982 19.3305 8.72187 19.2976 8.75973 19.1727C9.11938 17.9784 10.2433 17.1728 11.5281 17.1799C12.775 17.187 13.9013 18.0161 14.242 19.1892C14.2751 19.307 14.3272 19.3305 14.4408 19.3305C17.0151 19.3282 19.5894 19.3282 22.1638 19.3282C22.2395 19.3282 22.3175 19.3258 22.3933 19.3376C22.7884 19.3989 23.0203 19.7027 22.9919 20.115C22.9659 20.4871 22.6819 20.7557 22.2939 20.758C20.9807 20.7627 19.6675 20.7604 18.3519 20.7604ZM10.0658 20.0466C10.0682 20.8311 10.7189 21.4765 11.5044 21.4741C12.2923 21.4718 12.9383 20.824 12.9335 20.0396C12.9312 19.2552 12.2805 18.6121 11.495 18.6121C10.7047 18.6144 10.0635 19.2599 10.0658 20.0466Z" fill="white"/>
<path d="M6.8051 10.7348C8.81866 10.7348 10.8322 10.7348 12.8458 10.7372C12.9736 10.7372 13.0327 10.7113 13.0753 10.5747C13.6574 8.64778 16.0732 7.95523 17.6608 9.25081C18.0986 9.60887 18.4085 10.0541 18.5576 10.6006C18.5883 10.7113 18.6404 10.7348 18.7469 10.7348C19.911 10.7325 21.0775 10.7325 22.2416 10.7325C22.6155 10.7325 22.8781 10.9139 22.9657 11.2248C23.11 11.7313 22.7858 12.1623 22.2487 12.1623C21.0799 12.1647 19.9086 12.1647 18.7398 12.1623C18.6522 12.1623 18.5907 12.167 18.5623 12.2731C18.0418 14.1646 15.5644 15.0432 13.8798 13.5757C13.487 13.2341 13.2125 12.8148 13.0706 12.3155C13.0351 12.1882 12.9783 12.1576 12.8529 12.1576C8.83995 12.16 4.82939 12.16 0.816461 12.1623C0.598779 12.1623 0.392927 12.1364 0.229665 11.9786C-0.00221401 11.7548 -0.0495363 11.4816 0.0474744 11.1895C0.142119 10.9068 0.355069 10.7608 0.650833 10.7325C0.726549 10.7254 0.804631 10.7278 0.880346 10.7278C2.85605 10.7348 4.82939 10.7348 6.8051 10.7348ZM17.2444 11.4533C17.2468 10.6689 16.5961 10.0211 15.8105 10.0211C15.0273 10.0211 14.3719 10.6712 14.3719 11.4509C14.3719 12.2307 15.025 12.8832 15.8082 12.8832C16.5937 12.8855 17.242 12.2401 17.2444 11.4533Z" fill="white"/>
<path d="M4.35139 2.14413C4.50992 1.82613 4.62113 1.50577 4.81042 1.24429C5.50132 0.290276 6.45487 -0.140798 7.62136 0.040583C8.78312 0.221964 9.57577 0.89331 9.93542 2.02871C9.97564 2.15355 10.0443 2.14649 10.1365 2.14649C13.4349 2.14649 16.7333 2.14649 20.0316 2.14649C20.7746 2.14649 21.5175 2.14413 22.2605 2.14884C22.7787 2.1512 23.0981 2.57285 22.968 3.07224C22.8923 3.35962 22.6462 3.55985 22.341 3.57634C22.2605 3.58105 22.1777 3.57869 22.0972 3.57869C18.1269 3.57869 14.1589 3.57869 10.1886 3.57398C10.0301 3.57398 9.96381 3.60931 9.91413 3.7695C9.33443 5.60686 7.03693 6.32061 5.47293 5.1593C4.96895 4.78476 4.61167 4.30657 4.44367 3.70118C4.41528 3.59754 4.36559 3.57163 4.26385 3.57398C3.09025 3.57634 1.9143 3.57869 0.740703 3.57398C0.217792 3.57398 -0.106365 3.14055 0.0356016 2.63881C0.120782 2.33729 0.38342 2.14413 0.728873 2.14413C1.60197 2.14178 2.4727 2.14413 3.34579 2.14413C3.69598 2.14413 4.0438 2.14413 4.35139 2.14413ZM5.7545 2.86259C5.7545 3.64936 6.40045 4.29244 7.18836 4.29244C7.97155 4.29244 8.62459 3.63994 8.62459 2.86023C8.62459 2.08053 7.96918 1.42803 7.186 1.43039C6.39808 1.43039 5.75213 2.07582 5.7545 2.86259Z" fill="white"/>
</svg>
