<svg width="19" height="24" viewBox="0 0 19 24" fill="none" xmlns="http://www.w3.org/2000/svg">
<path d="M15.5209 23.9294C11.4951 23.9294 7.47931 23.9294 3.45347 23.9294C3.41321 23.9092 3.37296 23.8891 3.32263 23.8891C1.34997 23.5771 -0.0490079 21.9265 0.00131511 19.9337C0.0113797 19.36 0.0818319 18.7864 0.132155 18.2127C0.273059 16.3407 0.424028 14.4686 0.574997 12.5966C0.736031 10.5334 0.917193 8.47015 1.06816 6.4069C1.14868 5.36018 1.82301 4.70599 2.87979 4.70599C3.54405 4.70599 4.20832 4.70599 4.86252 4.70599C4.86252 5.74264 4.85245 6.77929 4.86252 7.81595C4.86252 8.23866 5.17452 8.5406 5.56704 8.5406C5.95956 8.5406 6.26149 8.2286 6.26149 7.81595C6.26149 6.77929 6.26149 5.74264 6.26149 4.70599C8.41532 4.70599 10.5691 4.70599 12.723 4.70599C12.723 5.72251 12.723 6.7491 12.723 7.76562C12.723 8.21853 13.0148 8.5406 13.4275 8.5406C13.8401 8.5406 14.132 8.2286 14.132 7.76562C14.132 6.7491 14.132 5.72251 14.132 4.70599C14.8063 4.70599 15.4907 4.70599 16.1651 4.70599C17.1715 4.71605 17.8559 5.38031 17.9264 6.38677C18.0169 7.62472 18.1176 8.87273 18.2182 10.1107C18.3491 11.7915 18.49 13.4622 18.6208 15.143C18.7416 16.6426 18.8422 18.1422 18.9831 19.6318C19.1442 21.3629 18.1377 23.0336 16.5173 23.6476C16.1852 23.7784 15.8531 23.8388 15.5209 23.9294ZM8.51596 15.0222C8.12345 14.6297 7.75106 14.2372 7.35854 13.8547C7.0264 13.5326 6.61376 13.5226 6.32188 13.8245C6.04007 14.1164 6.05014 14.529 6.36214 14.841C6.89556 15.3845 7.43905 15.928 7.98254 16.4614C8.32474 16.7936 8.71726 16.7936 9.05945 16.4614C9.37146 16.1595 9.66333 15.8576 9.96527 15.5556C10.8409 14.68 11.7165 13.8044 12.5921 12.9288C12.9243 12.5966 12.9343 12.184 12.6425 11.8921C12.3506 11.6002 11.9279 11.6204 11.6058 11.9324C11.4347 12.0934 11.2737 12.2645 11.1126 12.4255C10.2571 13.281 9.40165 14.1365 8.51596 15.0222Z" fill="#797979"/>
<path d="M14.1222 4.71632C13.6491 4.71632 13.1862 4.71632 12.7131 4.71632C12.7232 2.86444 11.3041 1.395 9.49247 1.395C7.68084 1.395 6.25167 2.86444 6.2718 4.71632C5.79876 4.71632 5.33579 4.71632 4.86275 4.71632C4.87282 3.31734 5.37605 2.12972 6.42277 1.17358C8.23439 -0.487076 11.1531 -0.366301 12.8339 1.41513C13.6995 2.34108 14.1121 3.44818 14.1222 4.71632Z" fill="#797979"/>
</svg>
