<svg width="30" height="28" viewBox="0 0 30 28" fill="none" xmlns="http://www.w3.org/2000/svg">
<path d="M0 4.84575C0 3.9759 0 3.19604 0 2.35119C1.31982 2.35119 2.5995 2.3412 3.88419 2.36619C4.0247 2.37119 4.20034 2.58115 4.28565 2.73613C4.56166 3.25103 4.83767 3.77094 5.04342 4.31584C5.21405 4.78076 5.48504 4.89074 5.95676 4.89074C11.783 4.88074 17.6143 4.88574 23.4456 4.88574C23.6715 4.88574 23.8973 4.87574 24.1231 4.89074C25.1167 4.95573 25.6989 5.84057 25.2322 6.70542C23.7116 9.51492 22.166 12.3094 20.5852 15.0889C20.0834 15.9688 19.2152 16.2687 18.2165 16.2637C15.3461 16.2537 12.4756 16.2737 9.60508 16.2487C9.13336 16.2437 8.85735 16.3737 8.66666 16.8086C8.45589 17.2785 8.16984 17.7135 7.91893 18.1684C7.67805 18.6033 7.84867 18.7983 8.30534 18.8233C8.46091 18.8333 8.62149 18.8283 8.78208 18.8283C13.1681 18.8283 17.5541 18.8283 21.9351 18.8283C22.2061 18.8283 22.4721 18.8283 22.7882 18.8283C22.7882 19.6431 22.7882 20.423 22.7882 21.3128C22.5674 21.3128 22.3316 21.3128 22.0957 21.3128C17.3735 21.3128 12.6462 21.2428 7.92394 21.3428C5.79115 21.3878 4.25053 19.2732 5.51013 17.3085C6.00694 16.5337 6.43852 15.7138 6.83998 14.884C6.95541 14.649 6.97046 14.2741 6.86006 14.0391C5.51013 11.1496 4.12005 8.27514 2.7651 5.38565C2.5744 4.98572 2.36363 4.80076 1.90195 4.83575C1.29975 4.88074 0.687511 4.84575 0 4.84575Z" fill="#4F5562"/>
<path d="M17.7946 25.1221C17.7997 23.7074 18.9087 22.6126 20.3289 22.6226C21.734 22.6326 22.8481 23.7724 22.833 25.1721C22.818 26.5319 21.6838 27.6417 20.3138 27.6467C18.8987 27.6467 17.7946 26.5419 17.7946 25.1221Z" fill="#4F5562"/>
<path d="M10.1025 25.1672C10.0924 26.5819 8.97334 27.6617 7.54312 27.6467C6.18315 27.6317 5.06406 26.4969 5.06406 25.1322C5.06406 23.7374 6.20824 22.6176 7.61337 22.6226C9.03356 22.6326 10.1125 23.7324 10.1025 25.1672Z" fill="#4F5562"/>
<path d="M19.4625 5.16184C19.5319 1.9937 21.849 -0.0463209 24.8903 0.000799235C27.7458 0.0451476 30.0545 2.45936 29.999 5.29766C29.9435 8.23573 27.5876 10.5335 24.6489 10.5169C21.7518 10.5003 19.4153 8.08606 19.4625 5.16184ZM23.3752 3.42671C24.3048 3.65677 24.3492 4.29705 24.3131 5.02048C24.2798 5.65799 24.3242 6.29826 24.3242 6.93577C24.3242 7.28501 24.4574 7.64812 24.7821 7.65643C25.1151 7.66475 25.2566 7.31273 25.2538 6.95517C25.2455 6.13473 25.2538 5.31151 25.2511 4.49107C25.2455 2.78089 25.1956 2.74485 23.3752 3.42671Z" fill="#F54748"/>
<path d="M23.3757 3.42675C25.1961 2.74766 25.246 2.78092 25.2516 4.48833C25.2543 5.30878 25.246 6.13199 25.2543 6.95244C25.2571 7.30999 25.1156 7.66201 24.7826 7.65369C24.4579 7.64538 24.3247 7.28228 24.3247 6.93303C24.3247 6.29276 24.2803 5.65248 24.3136 5.01774C24.3497 4.29708 24.3053 3.6568 23.3757 3.42675Z" fill="#FDFDFD"/>
</svg>
