<svg width="12" height="14" viewBox="0 0 12 14" fill="none" xmlns="http://www.w3.org/2000/svg">
<path d="M11.9828 4.97096C11.9414 4.82539 11.8314 4.7193 11.699 4.69733L7.97896 4.07911L6.31525 0.224101C6.25605 0.0868689 6.13382 0 6.00002 0C5.86619 0 5.74399 0.0868689 5.68476 0.224101L4.02099 4.07911L0.301003 4.69733C0.168606 4.7193 0.058567 4.82539 0.0172234 4.97093C-0.0241436 5.1165 0.0103562 5.27627 0.106192 5.38308L2.79793 8.3838L2.16259 12.6209C2.13995 12.7718 2.19418 12.9242 2.30244 13.0141C2.36368 13.065 2.43622 13.0909 2.50911 13.0909C2.56508 13.0909 2.62124 13.0757 2.67266 13.0447L6 11.0442L9.32719 13.0447C9.44567 13.1159 9.58918 13.1041 9.69743 13.0141C9.80569 12.9242 9.85995 12.7717 9.83733 12.6209L9.20178 8.3838L11.8938 5.38306C11.9896 5.27627 12.0242 5.1165 11.9828 4.97096Z" fill="#F54748"/>
</svg>
